<?xml version="1.0" standalone="no"?>
<!DOCTYPE svg PUBLIC "-//W3C//DTD SVG 20010904//EN"
 "http://www.w3.org/TR/2001/REC-SVG-20010904/DTD/svg10.dtd">
<svg version="1.0" xmlns="http://www.w3.org/2000/svg"
 width="512.000000pt" height="512.000000pt" viewBox="0 0 512.000000 512.000000"
 preserveAspectRatio="xMidYMid meet">
<metadata>
Created by potrace 1.14, written by Peter Selinger 2001-2017
</metadata>
<g transform="translate(0.000000,512.000000) scale(0.100000,-0.100000)"
fill="#000000" stroke="none">
<path d="M2091 3485 c-7 -16 -22 -57 -33 -90 -21 -61 -21 -121 -6 -630 11
-330 18 -435 38 -498 22 -71 63 -128 111 -153 40 -20 129 -18 191 6 156 58
464 389 580 622 48 97 86 204 76 213 -3 4 -37 -8 -74 -25 l-68 -31 -47 21
c-26 11 -56 20 -65 20 -25 0 11 37 103 106 129 98 204 117 262 68 17 -14 38
-24 48 -22 27 5 73 103 73 155 0 157 -119 149 -335 -24 -99 -80 -303 -282
-362 -358 -53 -69 -100 -180 -119 -280 -7 -41 -2 -42 69 -21 44 13 46 13 70
-13 54 -58 44 -78 -87 -165 -61 -41 -75 -46 -124 -46 -117 0 -180 40 -213 134
-29 84 -46 278 -55 611 -3 160 -10 322 -14 360 -6 68 -7 69 -19 40z"/>
<path d="M1774 3388 c-43 -86 -89 -144 -255 -318 -238 -252 -295 -316 -381
-430 -153 -205 -228 -404 -231 -615 -2 -134 18 -206 70 -257 34 -33 35 -33
126 -33 81 0 99 4 152 30 121 58 202 160 329 414 66 131 86 196 86 279 0 119
-57 192 -150 192 -59 0 -115 -32 -160 -92 -52 -70 -197 -408 -184 -430 3 -4
30 -15 60 -24 45 -13 54 -19 54 -38 0 -23 -28 -55 -67 -75 -24 -12 -112 -15
-162 -5 -104 21 -107 210 -7 418 82 167 185 307 408 546 73 79 169 186 212
238 75 90 146 206 146 238 0 29 -21 12 -46 -38z m-202 -1022 c14 -21 8 -77
-13 -119 -19 -39 -125 -157 -140 -157 -12 0 -30 90 -21 108 5 9 12 31 15 49 8
39 -16 60 -76 70 l-38 6 33 34 33 34 100 -7 c55 -4 103 -12 107 -18z"/>
<path d="M4111 2844 c-43 -36 -89 -116 -166 -289 -172 -384 -281 -540 -464
-664 -144 -98 -337 -165 -516 -179 -85 -7 -88 -8 -65 -22 34 -19 366 -27 470
-11 120 19 209 68 310 170 119 121 140 160 266 481 70 180 150 338 176 346 12
3 27 -1 39 -12 18 -16 21 -17 36 -1 12 12 17 35 17 86 1 60 -2 73 -23 95 -31
32 -42 32 -80 0z"/>
<path d="M3132 2597 l-133 -68 -31 -67 c-43 -97 -48 -111 -39 -116 17 -11 246
119 284 161 20 22 60 129 55 147 -2 6 -59 -18 -136 -57z"/>
<path d="M1821 1854 c-16 -20 -21 -41 -21 -86 0 -80 23 -74 30 8 4 44 9 59 20
59 24 0 27 -141 4 -166 -19 -21 -13 -35 11 -25 25 9 37 56 33 128 -3 47 -9 73
-22 87 -25 27 -30 26 -55 -5z"/>
<path d="M2288 1846 c-11 -15 -13 -27 -7 -37 12 -20 12 -249 -1 -249 -5 0 -10
-7 -10 -15 0 -8 9 -15 19 -15 16 0 20 8 23 42 2 31 8 44 21 46 14 3 17 -4 17
-42 l0 -46 114 0 115 0 3 42 c2 31 8 44 21 46 14 3 17 -4 17 -42 0 -39 3 -46
20 -46 23 0 23 0 9 60 -5 24 -18 52 -27 61 -15 14 -20 14 -39 1 -17 -11 -23
-24 -23 -52 0 -23 -5 -40 -14 -43 -21 -8 -26 2 -26 55 0 47 -1 49 -22 42 -49
-14 -76 -34 -88 -64 -16 -38 -30 -39 -30 -1 0 34 -35 82 -55 75 -12 -5 -15 13
-17 99 -3 100 -4 104 -20 83z m202 -261 c0 -21 -5 -25 -31 -25 -30 0 -31 5 -6
38 16 21 37 14 37 -13z"/>
<path d="M1825 1706 c-14 -10 -20 -30 -23 -80 -3 -46 -8 -66 -16 -63 -6 3 -22
-4 -35 -14 l-23 -19 51 0 51 0 0 75 c0 58 4 77 15 81 16 6 21 34 7 34 -5 0
-17 -6 -27 -14z"/>
<path d="M2169 1650 c-10 -17 -14 -41 -11 -72 4 -45 6 -48 33 -48 22 0 29 -5
29 -20 0 -18 -11 -25 -33 -21 -14 2 -38 -27 -28 -34 15 -9 58 5 74 23 8 10 17
46 19 83 5 54 2 70 -13 90 l-19 24 0 -57 c0 -44 -4 -58 -15 -58 -10 0 -15 15
-17 57 -3 56 -3 57 -19 33z"/>
<path d="M2067 1639 c-21 -11 -43 -31 -49 -44 l-11 -25 -18 29 c-24 39 -84 60
-107 37 -15 -15 -14 -16 14 -16 40 0 71 -24 79 -60 l7 -30 79 0 c64 0 79 3 79
15 0 8 -4 15 -10 15 -5 0 -10 23 -10 50 0 28 -3 50 -7 50 -5 -1 -25 -10 -46
-21z m33 -54 c0 -21 -5 -25 -30 -25 -34 0 -37 6 -13 32 23 26 43 23 43 -7z"/>
</g>
</svg>
